<svg width="60" height="60" viewBox="0 0 60 60" fill="none"
     xmlns="http://www.w3.org/2000/svg">
  <path
    d="M52.5 33.7425H33.75V52.4925C33.75 53.487 33.3549 54.4409 32.6516 55.1441C31.9484 55.8474 30.9946 56.2425 30 56.2425C29.0054 56.2425 28.0516 55.8474 27.3484 55.1441C26.6451 54.4409 26.25 53.487 26.25 52.4925V33.7425H7.5C6.50544 33.7425 5.55161 33.3474 4.84835 32.6441C4.14509 31.9409 3.75 30.9871 3.75 29.9925C3.75 28.9979 4.14509 28.0441 4.84835 27.3408C5.55161 26.6376 6.50544 26.2425 7.5 26.2425H26.25V7.49249C26.25 6.49793 26.6451 5.5441 27.3484 4.84084C28.0516 4.13758 29.0054 3.74249 30 3.74249C30.9946 3.74249 31.9484 4.13758 32.6516 4.84084C33.3549 5.5441 33.75 6.49793 33.75 7.49249V26.2425H52.5C53.4946 26.2425 54.4484 26.6376 55.1517 27.3408C55.8549 28.0441 56.25 28.9979 56.25 29.9925C56.25 30.9871 55.8549 31.9409 55.1517 32.6441C54.4484 33.3474 53.4946 33.7425 52.5 33.7425Z"
    fill="black" fill-opacity="0.32"/>
  <path
    d="M35.25 52.4925V35.2425H52.5C53.8924 35.2425 55.2277 34.6894 56.2123 33.7048C57.1969 32.7202 57.75 31.3849 57.75 29.9925C57.75 28.6001 57.1969 27.2647 56.2123 26.2802C55.2277 25.2956 53.8924 24.7425 52.5 24.7425H35.25V7.49249C35.25 6.10011 34.6969 4.76475 33.7123 3.78018C32.7277 2.79561 31.3924 2.24249 30 2.24249C28.6076 2.24249 27.2723 2.79561 26.2877 3.78018C25.3031 4.76475 24.75 6.10011 24.75 7.49249V24.7425H7.5C6.10761 24.7425 4.77226 25.2956 3.78769 26.2802C2.80312 27.2647 2.25 28.6001 2.25 29.9925C2.25 31.3849 2.80312 32.7202 3.78769 33.7048C4.77226 34.6894 6.10761 35.2425 7.5 35.2425H24.75V52.4925C24.75 53.8849 25.3031 55.2202 26.2877 56.2048C27.2723 57.1894 28.6076 57.7425 30 57.7425C31.3924 57.7425 32.7277 57.1894 33.7123 56.2048C34.6969 55.2202 35.25 53.8849 35.25 52.4925Z"
    stroke="black" stroke-opacity="0.32" stroke-width="3"/>
</svg>
