<svg width="80" height="80" viewBox="0 0 80 80" fill="none" xmlns="http://www.w3.org/2000/svg">
    <path d="M40 0C32.0888 0 24.3552 2.34596 17.7772 6.74121C11.1992 11.1365 6.07234 17.3836 3.04484 24.6927C0.0173314 32.0017 -0.774802 40.0444 0.768607 47.8036C2.31202 55.5628 6.12164 62.6902 11.7157 68.2843C17.3098 73.8784 24.4372 77.688 32.1964 79.2314C39.9556 80.7748 47.9983 79.9827 55.3073 76.9552C62.6164 73.9277 68.8635 68.8008 73.2588 62.2228C77.654 55.6448 80 47.9112 80 40C79.9888 29.3948 75.7709 19.2271 68.2719 11.7281C60.7729 4.22907 50.6052 0.0111993 40 0ZM19.2616 66.7308C21.4875 63.2495 24.5539 60.3847 28.1782 58.4002C31.8025 56.4158 35.868 55.3756 40 55.3756C44.132 55.3756 48.1976 56.4158 51.8218 58.4002C55.4461 60.3847 58.5126 63.2495 60.7385 66.7308C54.809 71.3422 47.5116 73.8459 40 73.8459C32.4884 73.8459 25.191 71.3422 19.2616 66.7308ZM27.6923 36.9231C27.6923 34.4888 28.4142 32.1093 29.7665 30.0853C31.1189 28.0613 33.0411 26.4838 35.2901 25.5522C37.539 24.6207 40.0137 24.377 42.4011 24.8519C44.7886 25.3268 46.9816 26.499 48.7029 28.2202C50.4241 29.9415 51.5963 32.1345 52.0712 34.522C52.5461 36.9094 52.3024 39.3841 51.3708 41.633C50.4393 43.882 48.8618 45.8042 46.8378 47.1565C44.8138 48.5089 42.4342 49.2308 40 49.2308C36.7358 49.2308 33.6053 47.9341 31.2972 45.6259C28.989 43.3178 27.6923 40.1873 27.6923 36.9231ZM65.2923 62.4654C61.8607 57.4926 57.0353 53.6454 51.4231 51.4077C54.4378 49.0332 56.6376 45.7784 57.7167 42.0957C58.7957 38.4131 58.7004 34.4857 57.4439 30.8598C56.1874 27.2338 53.8323 24.0896 50.7059 21.8642C47.5796 19.6388 43.8375 18.443 40 18.443C36.1625 18.443 32.4204 19.6388 29.2941 21.8642C26.1678 24.0896 23.8126 27.2338 22.5561 30.8598C21.2996 34.4857 21.2043 38.4131 22.2834 42.0957C23.3624 45.7784 25.5623 49.0332 28.5769 51.4077C22.9647 53.6454 18.1394 57.4926 14.7077 62.4654C10.3714 57.5891 7.53721 51.5632 6.54634 45.1135C5.55547 38.6637 6.45019 32.065 9.12277 26.1119C11.7954 20.1589 16.1318 15.1053 21.61 11.5598C27.0882 8.01421 33.4746 6.12787 40 6.12787C46.5255 6.12787 52.9118 8.01421 58.39 11.5598C63.8682 15.1053 68.2047 20.1589 70.8772 26.1119C73.5498 32.065 74.4445 38.6637 73.4537 45.1135C72.4628 51.5632 69.6286 57.5891 65.2923 62.4654Z"
          fill="url(#paint0_linear_46_287)"/>
    <defs>
        <linearGradient id="paint0_linear_46_287" x1="10" y1="7.5" x2="65" y2="80" gradientUnits="userSpaceOnUse">
            <stop stop-color="#B7E96C"/>
            <stop offset="0.503125" stop-color="#A6D363"/>
            <stop offset="1" stop-color="#7FA611"/>
        </linearGradient>
    </defs>
</svg>
