<svg width="50" height="50" viewBox="0 0 50 50" fill="none" xmlns="http://www.w3.org/2000/svg">
    <path fill-rule="evenodd" clip-rule="evenodd"
          d="M4.00889 2.77779C4.68879 2.77779 5.23996 3.35242 5.23996 4.06127V15.5635C5.23996 16.8497 5.96893 18.5839 7.2684 20.0356C8.55673 21.4746 10.2023 22.4086 11.8056 22.4086C13.409 22.4086 15.0545 21.4746 16.3428 20.0356C17.6423 18.5839 18.3713 16.8497 18.3713 15.5635V4.06127C18.3713 3.35242 18.9224 2.77779 19.6023 2.77779C20.2823 2.77779 20.8334 3.35242 20.8334 4.06127V15.5635C20.8334 17.6999 19.7157 20.0299 18.1428 21.7869C16.8234 23.2607 15.0402 24.4914 13.0367 24.8615V45.9386C13.0367 45.9386 13.0367 45.9388 11.8056 45.9388C10.5746 45.9388 10.5746 45.9386 10.5746 45.9386V24.8615C8.57096 24.4914 6.78779 23.2607 5.46846 21.7869C3.89546 20.0299 2.77783 17.6999 2.77783 15.5635V4.06127C2.77783 3.35242 3.329 2.77779 4.00889 2.77779ZM11.8056 45.9388L10.5746 45.9386C10.5746 46.6475 11.1257 47.2222 11.8056 47.2222C12.4855 47.2222 13.0367 46.6475 13.0367 45.9386L11.8056 45.9388ZM11.8056 2.77779C12.4855 2.77779 13.0367 3.35242 13.0367 4.06127V16.8469C13.0367 17.5558 12.4855 18.1304 11.8056 18.1304C11.1257 18.1304 10.5746 17.5558 10.5746 16.8469V4.06127C10.5746 3.35242 11.1257 2.77779 11.8056 2.77779Z"
          fill="#A6D128"/>
    <path d="M13.0367 45.9386C13.0367 45.9386 13.0367 45.9388 11.8056 45.9388M13.0367 45.9386C13.0367 46.6475 12.4855 47.2222 11.8056 47.2222C11.1257 47.2222 10.5746 46.6475 10.5746 45.9386M13.0367 45.9386L11.8056 45.9388M13.0367 45.9386V24.8615C15.0402 24.4914 16.8234 23.2607 18.1428 21.7869C19.7157 20.0299 20.8334 17.6999 20.8334 15.5635V4.06127C20.8334 3.35242 20.2823 2.77779 19.6023 2.77779C18.9224 2.77779 18.3713 3.35242 18.3713 4.06127V15.5635C18.3713 16.8497 17.6423 18.5839 16.3428 20.0356C15.0545 21.4746 13.409 22.4086 11.8056 22.4086C10.2023 22.4086 8.55673 21.4746 7.2684 20.0356C5.96893 18.5839 5.23996 16.8497 5.23996 15.5635V4.06127C5.23996 3.35242 4.68879 2.77779 4.00889 2.77779C3.329 2.77779 2.77783 3.35242 2.77783 4.06127V15.5635C2.77783 17.6999 3.89546 20.0299 5.46846 21.7869C6.78779 23.2607 8.57096 24.4914 10.5746 24.8615V45.9386M11.8056 45.9388C10.5746 45.9388 10.5746 45.9386 10.5746 45.9386M11.8056 45.9388L10.5746 45.9386M13.0367 4.06127C13.0367 3.35242 12.4855 2.77779 11.8056 2.77779C11.1257 2.77779 10.5746 3.35242 10.5746 4.06127V16.8469C10.5746 17.5558 11.1257 18.1304 11.8056 18.1304C12.4855 18.1304 13.0367 17.5558 13.0367 16.8469V4.06127Z"
          stroke="#A6D128" stroke-width="0.5" stroke-linecap="round" stroke-linejoin="round"/>
    <path fill-rule="evenodd" clip-rule="evenodd"
          d="M37.5 27.7778C38.2671 27.7778 38.8889 28.3001 38.8889 28.9444V46.0555C38.8889 46.6999 38.2671 47.2222 37.5 47.2222C36.7329 47.2222 36.1111 46.6999 36.1111 46.0555V28.9444C36.1111 28.3001 36.7329 27.7778 37.5 27.7778Z"
          fill="#A6D128" stroke="#A6D128" stroke-width="0.5" stroke-linecap="round"/>
    <path fill-rule="evenodd" clip-rule="evenodd"
          d="M42.0749 23.5911C43.4835 21.5787 44.4445 18.6476 44.4445 15.2778C44.4445 11.9079 43.4835 8.97675 42.0749 6.9645C40.6559 4.93722 38.9878 4.07705 37.5001 4.07705C36.0123 4.07705 34.3442 4.93722 32.9252 6.9645C31.5166 8.97675 30.5556 11.9079 30.5556 15.2778C30.5556 18.6476 31.5166 21.5787 32.9252 23.5911C34.3442 25.6183 36.0123 26.4785 37.5001 26.4785C38.9878 26.4785 40.6559 25.6183 42.0749 23.5911ZM37.5001 29.1667C42.8695 29.1667 47.2223 22.9483 47.2223 15.2778C47.2223 7.60715 42.8695 1.38889 37.5001 1.38889C32.1306 1.38889 27.7778 7.60715 27.7778 15.2778C27.7778 22.9483 32.1306 29.1667 37.5001 29.1667Z"
          fill="#A6D128" stroke="#A6D128" stroke-width="0.5"/>
</svg>
