<svg width="50" height="50" viewBox="0 0 50 50" fill="none" xmlns="http://www.w3.org/2000/svg">
    <g clip-path="url(#clip0_17_640)">
        <path d="M14.0618 43.9937H16.1026V46.0346H14.0618V43.9937Z" fill="#A6D128"/>
        <path d="M32.4141 12.9331C39.1513 15.9647 40.7137 22.4346 40.777 22.7086L37.7942 23.3971C37.7821 23.3447 36.5255 18.14 31.158 15.7246L32.4141 12.9331Z"
              fill="#A6D128"/>
        <path d="M2.52735 25.7439C2.94785 20.3501 5.26582 15.3381 9.14864 11.4977C12.8928 7.79453 17.7114 5.55908 22.8932 5.08115C22.3553 4.54249 22.0226 3.79883 22.0226 2.97735C22.0226 1.33311 23.3556 0 25 0C26.6444 0 27.9774 1.33311 27.9774 2.97735C27.9774 3.79874 27.6447 4.54249 27.1068 5.08115C32.2886 5.55908 37.1071 7.79453 40.8512 11.4977C44.7342 15.3381 47.0521 20.3501 47.4726 25.7439H50V28.8051H47.56H44.8979V30.9474L37.9186 34.4256L20.6585 37.0996L20.5989 37.1078C20.5932 37.1083 19.9979 37.1925 19.4311 37.5085C18.5862 37.9794 18.4779 38.5872 18.4779 39.064V39.7551H20.2962V50H2.96768V39.7553H5.30567V31.749L8.29561 28.8051H2.44014H0V25.7439H2.52735ZM20.2164 34.0703L36.9793 31.4732L41.8367 29.0526V28.8051H12.6586L8.36679 33.0308V39.7551H15.4167V39.064C15.4165 35.5731 18.5368 34.2754 20.2164 34.0703ZM6.02881 42.8726V46.9387H17.2349V42.8726H6.02881ZM11.4044 25.7439H44.4006C43.4917 15.8521 35.0943 8.04462 25 8.04462C14.9057 8.04462 6.50831 15.8521 5.59942 25.7439H11.4044Z"
              fill="#A6D128"/>
    </g>
    <defs>
        <clipPath id="clip0_17_640">
            <rect width="50" height="50" fill="white"/>
        </clipPath>
    </defs>
</svg>
