<svg width="50" height="50" viewBox="0 0 50 50" fill="none" xmlns="http://www.w3.org/2000/svg">
    <path d="M47.6255 24.0163C48.1763 24.0163 48.6092 24.4492 48.6092 25C48.6092 25.551 48.1763 25.9839 47.6255 25.9839H46.6416V24.0163H47.6255Z"
          fill="#A6D128" stroke="#A6D128" stroke-width="0.5"/>
    <path d="M25.9819 24.0163H46.6415V25.9839H25.9819V24.0163Z" fill="#A6D128" stroke="#A6D128" stroke-width="0.5"/>
    <path d="M43.6919 48.6108H25C25.551 48.6108 25.9837 48.1781 25.9837 47.6271V46.6433H43.6919C45.325 46.6433 46.6433 45.325 46.6433 43.6919V25.9837H47.6271C48.1781 25.9837 48.6108 25.551 48.6108 25V43.6919C48.6108 46.4072 46.4072 48.6108 43.6919 48.6108Z"
          fill="#A6D128" stroke="#A6D128" stroke-width="0.5"/>
    <path d="M48.6108 6.30805V25C48.6108 24.449 48.1781 24.0163 47.6271 24.0163H46.6433V6.30805C46.6433 4.67496 45.325 3.35668 43.6919 3.35668H25.9837V2.37289C25.9837 1.82198 25.551 1.38911 25 1.38911H43.6919C46.4072 1.38911 48.6108 3.5928 48.6108 6.30805Z"
          fill="#A6D128" stroke="#A6D128" stroke-width="0.5"/>
    <path d="M40.7389 13.1945C41.2898 13.1945 41.7227 13.6274 41.7227 14.1783C41.7227 14.7293 41.2898 15.1621 40.7389 15.1621H32.8687C32.3177 15.1621 31.8848 14.7293 31.8848 14.1783C31.8848 13.6274 32.3177 13.1945 32.8687 13.1945H40.7389Z"
          fill="#A6D128" stroke="#A6D128" stroke-width="0.5"/>
    <path d="M40.7389 32.8704C41.2898 32.8704 41.7227 33.3032 41.7227 33.8542C41.7227 34.405 41.2898 34.8379 40.7389 34.8379H32.8687C32.3177 34.8379 31.8848 34.405 31.8848 33.8542C31.8848 33.3032 32.3177 32.8704 32.8687 32.8704H40.7389Z"
          fill="#A6D128" stroke="#A6D128" stroke-width="0.5"/>
    <path d="M40.7389 38.7731C41.2898 38.7731 41.7227 39.206 41.7227 39.7568C41.7227 40.3078 41.2898 40.7407 40.7389 40.7407H32.8687C32.3177 40.7407 31.8848 40.3078 31.8848 39.7568C31.8848 39.206 32.3177 38.7731 32.8687 38.7731H40.7389Z"
          fill="#A6D128" stroke="#A6D128" stroke-width="0.5"/>
    <path d="M25.9856 46.6432V47.6269C25.9856 48.1779 25.5528 48.6108 25.0018 48.6108C24.4508 48.6108 24.0181 48.1779 24.0181 47.6269V46.6432H25.9856Z"
          fill="#A6D128" stroke="#A6D128" stroke-width="0.5"/>
    <path d="M24.0181 25.9837H25.9856V46.6432H24.0181V25.9837Z" fill="#A6D128" stroke="#A6D128" stroke-width="0.5"/>
    <path d="M24.0181 24.0163H25.9856V25.9839H24.0181V24.0163Z" fill="#A6D128" stroke="#A6D128" stroke-width="0.5"/>
    <path d="M24.0181 3.35674H25.9856V24.0162H24.0181V3.35674Z" fill="#A6D128" stroke="#A6D128" stroke-width="0.5"/>
    <path d="M25.9856 2.37289V3.35668H24.0181V2.37289C24.0181 1.82198 24.4508 1.38911 25.0018 1.38911C25.5528 1.38911 25.9856 1.82198 25.9856 2.37289Z"
          fill="#A6D128" stroke="#A6D128" stroke-width="0.5"/>
    <path d="M3.3584 24.0163H24.0179V25.9839H3.3584V24.0163Z" fill="#A6D128" stroke="#A6D128" stroke-width="0.5"/>
    <path d="M17.1277 13.1945C17.6786 13.1945 18.1114 13.6274 18.1114 14.1783C18.1114 14.7293 17.6786 15.1621 17.1277 15.1621H14.1763V13.1945H17.1277Z"
          fill="#A6D128" stroke="#A6D128" stroke-width="0.5"/>
    <path d="M16.8343 39.0682C17.2278 39.4419 17.2278 40.0717 16.8343 40.4454C16.6573 40.6422 16.4016 40.7406 16.1457 40.7406C15.8899 40.7406 15.6342 40.6422 15.4571 40.4454L13.1943 38.1828L14.5717 36.8054L16.8343 39.0682Z"
          fill="#A6D128" stroke="#A6D128" stroke-width="0.5"/>
    <path d="M15.4571 33.1656C15.8309 32.7719 16.4604 32.7719 16.8343 33.1656C17.2278 33.5393 17.2278 34.1689 16.8343 34.5428L14.5717 36.8056L13.1943 35.4282L15.4571 33.1656Z"
          fill="#A6D128" stroke="#A6D128" stroke-width="0.5"/>
    <path d="M11.811 36.8033L13.1884 35.426L14.5657 36.8033L13.1884 38.1807L11.811 36.8033Z" fill="#A6D128"
          stroke="#A6D128" stroke-width="0.5"/>
    <path d="M14.1799 15.1622V18.1136C14.1799 18.6644 13.7471 19.0974 13.1962 19.0974C12.6453 19.0974 12.2124 18.6644 12.2124 18.1136V15.1622H14.1799Z"
          fill="#A6D128" stroke="#A6D128" stroke-width="0.5"/>
    <path d="M12.2124 13.1945H14.1799V15.1621H12.2124V13.1945Z" fill="#A6D128" stroke="#A6D128" stroke-width="0.5"/>
    <path d="M14.1799 10.2433V13.1946H12.2124V10.2433C12.2124 9.69234 12.6453 9.25948 13.1962 9.25948C13.7471 9.25948 14.1799 9.69234 14.1799 10.2433Z"
          fill="#A6D128" stroke="#A6D128" stroke-width="0.5"/>
    <path d="M13.1961 35.4282L11.8188 36.8056L9.55612 34.5428C9.16261 34.1689 9.16261 33.5393 9.55612 33.1656C9.92996 32.7719 10.5596 32.7719 10.9334 33.1656L13.1961 35.4282Z"
          fill="#A6D128" stroke="#A6D128" stroke-width="0.5"/>
    <path d="M12.2088 13.1945V15.1621H9.25747C8.70654 15.1621 8.27368 14.7293 8.27368 14.1783C8.27368 13.6274 8.70654 13.1945 9.25747 13.1945H12.2088Z"
          fill="#A6D128" stroke="#A6D128" stroke-width="0.5"/>
    <path d="M10.9334 40.4454C10.7563 40.6422 10.5006 40.7406 10.2448 40.7406C9.98898 40.7406 9.73321 40.6422 9.55612 40.4454C9.16261 40.0717 9.16261 39.4419 9.55612 39.0682L11.8188 36.8054L13.1961 38.1828L10.9334 40.4454Z"
          fill="#A6D128" stroke="#A6D128" stroke-width="0.5"/>
    <path d="M3.35649 24.0163V25.9839H2.37271C1.82178 25.9839 1.38892 25.551 1.38892 25C1.38892 24.4492 1.82178 24.0163 2.37271 24.0163H3.35649Z"
          fill="#A6D128" stroke="#A6D128" stroke-width="0.5"/>
    <path d="M1.38892 6.30783C1.38892 3.59257 3.5926 1.38889 6.30786 1.38889H24.9997C24.4489 1.38889 24.016 1.82175 24.016 2.37268V3.35645H6.30786C4.67476 3.35645 3.35649 4.67473 3.35649 6.30783V24.016H2.37271C1.82178 24.016 1.38892 24.4489 1.38892 24.9997V6.30783Z"
          fill="#A6D128" stroke="#A6D128" stroke-width="0.5"/>
    <path d="M3.35649 43.6919C3.35649 45.325 4.67476 46.6433 6.30786 46.6433H24.016V47.6271C24.016 48.1781 24.4489 48.6108 24.9997 48.6108H6.30786C3.5926 48.6108 1.38892 46.4072 1.38892 43.6919V25C1.38892 25.551 1.82178 25.9837 2.37271 25.9837H3.35649V43.6919Z"
          fill="#A6D128" stroke="#A6D128" stroke-width="0.5"/>
</svg>
