<svg width="50" height="50" viewBox="0 0 50 50" fill="none" xmlns="http://www.w3.org/2000/svg">
    <path d="M39.0906 0H5.30029C4.4749 0 3.80322 0.671581 3.80322 1.49707V48.5028C3.80322 49.3282 4.47481 49.9999 5.30029 49.9999H39.0905C43.0069 49.9999 46.193 46.8138 46.193 42.8974V7.10253C46.1931 3.18613 43.007 0 39.0906 0ZM8.71503 47.0663H6.7369V2.93358H8.71503V47.0663ZM43.2595 42.8974C43.2595 45.1963 41.3894 47.0664 39.0905 47.0664H11.6484V2.93358H39.0905C41.3892 2.93358 43.2595 4.80371 43.2595 7.10253V42.8974Z"
          fill="#A6D128"/>
    <path d="M34.0974 19.1878C33.8903 19.1878 33.6849 19.2025 33.4827 19.2313C32.9296 16.6154 30.6071 14.6738 27.8529 14.6738C25.4464 14.6738 23.3813 16.159 22.5232 18.2606C22.1009 18.1435 21.6611 18.0822 21.2138 18.0822C18.5149 18.0822 16.3193 20.2778 16.3193 22.9765C16.3193 25.1647 17.7625 27.0215 19.747 27.6463V32.6138C19.747 33.4239 20.4036 34.0806 21.2138 34.0806H34.0974C34.9075 34.0806 35.5642 33.4239 35.5642 32.6138V27.6153C37.2384 27.0125 38.4389 25.4086 38.4389 23.5293C38.4389 21.1354 36.4913 19.1878 34.0974 19.1878ZM32.6306 31.1469H22.6806V27.871H32.6306V31.1469ZM34.0974 24.9374H21.2138C20.1325 24.9374 19.2528 24.0578 19.2528 22.9764C19.2528 21.895 20.1325 21.0154 21.2138 21.0154C21.7103 21.0154 22.1684 21.2193 22.5478 21.539C23.4982 22.3403 25.0002 21.9808 25.0313 20.4288C25.0313 18.8729 26.297 17.6072 27.8528 17.6072C29.3448 17.6072 30.5789 18.7681 30.6693 20.2532C30.672 20.3925 30.6741 21.2794 30.6745 21.5599C30.6745 22.2983 31.2698 22.9672 32.0082 22.9672C32.4159 22.9672 32.8396 22.7844 33.1382 22.4969C33.3993 22.2546 33.7406 22.1214 34.0973 22.1214C34.8736 22.1214 35.5052 22.7531 35.5052 23.5293C35.5052 24.3056 34.8736 24.9374 34.0974 24.9374Z"
          fill="#A6D128"/>
</svg>
